# AST/ASF file generated using VICON BodyLanguage
# -----------------------------------------------
:version 1.10
:name VICON
:units
  mass 1.0
  length 0.45
  angle deg
:documentation
   .ast/.asf automatically generated from VICON data using
   VICON BodyBuilder and BodyLanguage model FoxedUp or BRILLIANT.MOD
:root
   order TX TY TZ RX RY RZ
   axis XYZ
   position 0 0 0  
   orientation 0 0 0 
:bonedata
  begin
     id 1 
     name lhipjoint
     direction 0.560651 -0.75055 0.34978 
     length 2.44936 
     axis 0 0 0  XYZ
  end
  begin
     id 2 
     name lfemur
     direction 0.34202 -0.939693 0  
     length 7.42139  
     axis 0 0 20  XYZ
    dof rx ry rz
    limits (-160.0 20.0)
           (-70.0 70.0)
           (-60.0 70.0)
  end
  begin
     id 3 
     name ltibia
     direction 0.34202 -0.939693 0   
     length 7.75674   
     axis 0 0 20   XYZ
    dof rx
    limits (-10.0 170.0)
  end
  begin
     id 4 
     name lfoot
     direction 0.0925879 -0.254383 0.962661   
     length 2.38688   
     axis -90 7.62852e-016 20   XYZ
    dof rx rz
    limits (-45.0 90.0)
           (-70.0 20.0)
  end
  begin
     id 5 
     name ltoes
     direction 1.53567e-011 -4.21973e-011 1   
     length 1.19228   
     axis -90 7.62852e-016 20   XYZ
    dof rx
    limits (-90.0 20.0)
  end
  begin
     id 6 
     name rhipjoint
     direction -0.540087 -0.762838 0.355506   
     length 2.4099  
     axis 0 0 0  XYZ 
  end
  begin
     id 7 
     name rfemur
     direction -0.34202 -0.939693 0   
     length 7.70794   
     axis 0 0 -20   XYZ
    dof rx ry rz
    limits (-160.0 20.0)
           (-70.0 70.0)
           (-70.0 60.0)
  end
  begin
     id 8 
     name rtibia
     direction -0.34202 -0.939693 0   
     length 7.66106   
     axis 0 0 -20   XYZ
    dof rx
    limits (-10.0 170.0)
 end
 begin
     id 9 
     name rfoot
     direction -0.0830975 -0.228308 0.970036   
     length 2.4989  
     axis -90 -7.62852e-016 -20   XYZ
    dof rx rz
    limits (-45.0 90.0)
           (-20.0 70.0)
  end
  begin
     id 10 
     name rtoes
     direction -1.53517e-011 -4.21842e-011 1   
     length 1.2498   
     axis -90 -7.62852e-016 -20   XYZ
    dof rx
    limits (-90.0 20.0)
  end
  begin
     id 11 
     name lowerback
     direction 0.0266356 0.99402 -0.105896   
     length 2.1545   
     axis 0 0 0   XYZ
    dof rx ry rz
    limits (-20.0 45.0)
           (-30.0 30.0)
           (-30.0 30.0)
  end
  begin
     id 12 
     name upperback
     direction 0.0130547 0.999192 0.0380027   
     length 2.1434   
     axis 0 0 0   XYZ
    dof rx ry rz
    limits (-20.0 45.0)
           (-30.0 30.0)
           (-30.0 30.0)
  end
  begin
     id 13 
     name thorax
     direction 0.000590299 0.996288 0.0860764   
     length 2.19049   
     axis 0 0 0   XYZ
    dof rx ry rz
    limits (-20.0 45.0)
           (-30.0 30.0)
           (-30.0 30.0)
  end
  begin
     id 14 
     name lowerneck
     direction -0.0432125 0.978219 0.203028   
     length 1.62441   
     axis 0 0 0   XYZ
    dof rx ry rz
    limits (-20.0 45.0)
           (-30.0 30.0)
           (-30.0 30.0)
  end
  begin
     id 15 
     name upperneck
     direction -0.0192309 0.991699 -0.127138   
     length 1.66666   
     axis 0 0 0   XYZ
    dof rx ry rz
    limits (-20.0 45.0)
           (-30.0 30.0)
           (-30.0 30.0)
  end
  begin
     id 16
     name head
     direction -0.00434499 0.997882 -0.0649107  
     length 1.67142  
     axis 0 0 0   XYZ
    dof rx ry rz
    limits (-20.0 45.0)
           (-30.0 30.0)
           (-30.0 30.0)
  end
  begin
     id 17 
     name lclavicle
     direction 0.970351 0.240904 -0.0196058  
     length 4.04862  
     axis 0 0 0   XYZ
    dof ry rz
    limits (-20.0 10.0)
           (0.0 20.0)
  end
  begin
     id 18 
     name lhumerus
     direction 1 -4.4896e-011 -1.40911e-018   
     length 5.58345   
     axis 180 -30 -90   XYZ
    dof rx ry rz
    limits (-60.0 90.0)
           (-90.0 90.0)
           (-90.0 90.0)
  end
  begin
     id 19
     name lradius
     direction 1 -4.48968e-011 5.88912e-028   
     length 3.71087   
     axis 180 -30 -90   XYZ
    dof rx
    limits (-10.0 170.0)
  end
  begin
     id 20
     name lwrist
     direction 1 -4.48955e-011 -8.83775e-028   
     length 1.85544   
     axis 5.52448e-016 90 90   XYZ
    dof ry
    limits (-180.0 0.0)
 end
  begin
     id 21 
     name lhand
     direction 1 -4.49035e-011 -1.76755e-027   
     length 0.562322   
     axis 1.12785e-015 90 90   XYZ
    dof rx rz
    limits (-90.0 90.0)
           (-45.0 45.0)
  end
  begin
     id 22 
     name lfingers
     direction 1 -4.48824e-011 -3.5351e-027   
     length 0.453359   
     axis 2.2557e-015 90 90   XYZ
    dof rx
    limits (0.0 90.0)
  end
  begin
     id 23
     name lthumb
     direction 0.707107 -6.34888e-011 0.707107   
     length 0.650935   
     axis -90 45 2.85299e-015   XYZ
    dof rx rz
    limits (-45.0 45.0)
           (-45.0 45.0)
  end
  begin
     id 24 
     name rclavicle
     direction -0.96165 0.268562 -0.0557131   
     length 4.05446  
     axis 0 0 0   XYZ 
    dof ry rz
    limits (-10.0 20.0)
           (-20.0 0.0)
  end
  begin
     id 25 
     name rhumerus
     direction -1 -4.48957e-011 -3.36329e-027  
     length 5.20357   
     axis 180 30 90   XYZ
    dof rx ry rz
    limits (-90.0 60.0)
           (-90.0 90.0)
           (-90.0 90.0)
  end
  begin
     id 26 
     name rradius
     direction -1 -4.48974e-011 4.51441e-027   
     length 3.64937   
     axis 180 30 90   XYZ
    dof rx
    limits (-10.0 170.0)
  end
  begin
     id 27 
     name rwrist
     direction -1 -4.4896e-011 -8.83775e-028   
     length 1.82468   
     axis 5.52448e-016 -90 -90   XYZ
    dof ry
    limits (-180.0 0.0)
  end
  begin
     id 28
     name rhand
     direction -1 -4.48996e-011 -1.76755e-027   
     length 0.617996   
     axis 1.12785e-015 -90 -90   XYZ
    dof rx rz
    limits (-90.0 90.0)
           (-45.0 45.0)
  end
  begin
     id 29
     name rfingers
     direction -1 -4.48957e-011 -3.5351e-027   
     length 0.498244   
     axis 2.2557e-015 -90 -90   XYZ
    dof rx
    limits (0.0 90.0)
  end
  begin
     id 30
     name rthumb
     direction -0.707107 -6.34931e-011 0.707107   
     length 0.715382   
     axis -90 -45 -2.85299e-015   XYZ
    dof rx rz
    limits (-45.0 45.0)
           (-45.0 45.0)
  end
:hierarchy
  begin
    root lhipjoint rhipjoint lowerback
    lhipjoint lfemur
    lfemur ltibia
    ltibia lfoot
    lfoot ltoes
    rhipjoint rfemur
    rfemur rtibia
    rtibia rfoot
    rfoot rtoes
    lowerback upperback
    upperback thorax
    thorax lowerneck lclavicle rclavicle
    lowerneck upperneck
    upperneck head
    lclavicle lhumerus
    lhumerus lradius
    lradius lwrist
    lwrist lhand lthumb
    lhand lfingers
    rclavicle rhumerus
    rhumerus rradius
    rradius rwrist
    rwrist rhand rthumb
    rhand rfingers
  end

#!OML:ASF H:\ManfredETheater\Project 1\Capture day 2\Session 1\Male1.ASF
:FULLY-SPECIFIED
:DEGREES
299
root 1.33251 15.5051 34.6552 22.9392 2.74853 1.72872
lowerback 15.1125 -2.48793 -0.322757
upperback -1.30867 -3.10646 2.63759
thorax -9.75439 -1.38446 3.75937
lowerneck -27.4363 1.51067 0.52049
upperneck 6.16198 2.28564 -3.47021
head 6.20444 0.787928 -0.940852
rclavicle 1.98785e-014 -2.38542e-015
rhumerus -55.0271 5.79171 -84.9697
rradius 67.229
rwrist -7.19196
rhand -32.7636 -9.09754
rfingers 7.12502
rthumb -5.98599 -38.993
lclavicle 1.98785e-014 -2.38542e-015
lhumerus -28.0277 -11.6834 93.1282
lradius 101.993
lwrist 9.78725
lhand -20.0073 0.45897
lfingers 7.12502
lthumb 6.33274 30.3443
rfemur -74.3397 -11.5126 26.8415
rtibia 87.6719
rfoot -23.612 -0.992245
rtoes -24.9307
lfemur 18.5556 -4.69745 -24.4867
ltibia 8.5875e-014
lfoot -20.0032 -0.653351
ltoes -13.4793
300
root 1.32329 15.4753 34.916 22.8547 3.05592 1.30562
lowerback 15.68 -2.59533 0.42141
upperback -1.15644 -3.0735 2.90884
thorax -9.93963 -1.39494 3.65444
lowerneck -27.9097 1.50897 0.379347
upperneck 6.13573 2.35415 -3.63346
head 6.26609 0.796341 -0.96359
rclavicle 1.37161e-014 -1.19271e-015
rhumerus -57.0363 6.22896 -84.9097
rradius 69.7988
rwrist -6.72363
rhand -32.9311 -8.29304
rfingers 7.12502
rthumb -6.14771 -38.1838
lclavicle 1.37161e-014 -1.19271e-015
lhumerus -28.2837 -12.8204 93.5358
lradius 105.368
lwrist 10.3259
lhand -20.1105 -0.18136
lfingers 7.12502
lthumb 6.2331 29.7069
rfemur -74.2258 -11.5951 27.3311
rtibia 87.6706
rfoot -22.8823 -0.513903
rtoes -24.8894
lfemur 19.4867 -5.03316 -23.927
ltibia 1.90833e-014
lfoot -19.0107 -0.694552
ltoes -15.6013
301
root 1.30866 15.4426 35.1768 23.1035 3.28441 0.970785
lowerback 15.9422 -2.67204 0.966621
upperback -1.16828 -3.03331 3.20059
thorax -10.1194 -1.39154 3.67276
lowerneck -28.1516 1.5246 0.254125
upperneck 6.07063 2.44462 -3.83491
head 6.28336 0.815043 -0.998978
rclavicle -4.92986e-014 3.73715e-014
rhumerus -59.059 6.77375 -84.8831
rradius 71.9287
rwrist -6.24116
rhand -33.1967 -7.66856
rfingers 7.12502
rthumb -6.40413 -37.5517
lclavicle -4.92986e-014 3.73715e-014
lhumerus -28.7705 -14.0703 94.0398
lradius 108.616
lwrist 10.8805
lhand -20.589 -1.23015
lfingers 7.12502
lthumb 5.77117 28.6713
rfemur -74.3084 -11.5527 27.7972
rtibia 87.8211
rfoot -21.6992 -0.406822
rtoes -24.8056
lfemur 20.0253 -5.35594 -23.437
ltibia -8.26944e-014
lfoot -17.5986 -1.0423
ltoes -16.901
302
root 1.29363 15.4242 35.4495 23.4443 3.46779 0.742901
lowerback 16.0765 -2.74569 1.37766
upperback -1.23436 -3.01843 3.45497
thorax -10.2798 -1.39518 3.7279
lowerneck -28.1324 1.57235 0.230317
upperneck 5.88553 2.53952 -4.06146
head 6.22583 0.841431 -1.05823
rclavicle 1.11319e-014 -8.34896e-015
rhumerus -61.1642 7.25565 -84.9137
rradius 73.9466
rwrist -5.9222
rhand -33.6781 -6.82894
rfingers 7.12502
rthumb -6.86886 -36.6975
lclavicle 1.11319e-014 -8.34896e-015
lhumerus -29.4258 -15.4491 94.5651
lradius 111.723
lwrist 11.474
lhand -21.581 -2.21385
lfingers 7.12502
lthumb 4.81334 27.7115
rfemur -74.3225 -11.5186 28.1113
rtibia 88.0777
rfoot -20.1265 -0.315983
rtoes -24.0527
lfemur 20.4324 -5.67892 -23.0605
ltibia -9.54166e-015
lfoot -15.9979 -1.26331
ltoes -18.9365
303
root 1.27008 15.4034 35.7369 23.5961 3.71398 0.458838
lowerback 16.2825 -2.84196 1.71682
upperback -1.27243 -3.03718 3.76694
thorax -10.4423 -1.40902 3.89957
lowerneck -27.8421 1.6775 0.233979
upperneck 5.60238 2.69705 -4.30932
head 6.10036 0.902583 -1.12092
rclavicle 2.38542e-015 1.47101e-014
rhumerus -63.2127 7.71469 -84.9687
rradius 75.6683
rwrist -5.74534
rhand -34.2631 -6.20824
rfingers 7.12502
rthumb -7.4335 -36.0576
lclavicle 2.38542e-015 1.47101e-014
lhumerus -30.2659 -16.7943 95.1177
lradius 114.558
lwrist 11.6729
lhand -22.2175 -3.58691
lfingers 7.12502
lthumb 4.19872 26.3515
rfemur -73.7692 -11.5149 28.4776
rtibia 88.4173
rfoot -18.374 -0.519183
rtoes -23.0359
lfemur 21.0655 -6.03459 -22.5872
ltibia 6.36111e-015
lfoot -14.1645 -1.4766
ltoes -21.1901
304
root 1.25019 15.3862 36.0298 24.1197 3.87071 0.343137
lowerback 16.1169 -2.87391 1.93892
upperback -1.37478 -3.01248 4.0294
thorax -10.4612 -1.40093 4.05133
lowerneck -27.7641 1.71453 0.170424
upperneck 5.41147 2.78406 -4.50004
head 6.03211 0.929497 -1.16303
rclavicle 5.60573e-014 -3.81667e-014
rhumerus -64.9729 7.95571 -84.964
rradius 77.0456
rwrist -5.90558
rhand -34.8476 -5.51391
rfingers 7.12502
rthumb -7.99772 -35.3426
lclavicle 5.60573e-014 -3.81667e-014
lhumerus -31.1233 -18.2913 95.7271
lradius 117.219
lwrist 11.5644
lhand -22.6878 -4.87218
lfingers 7.12502
lthumb 3.74455 25.0747
rfemur -73.4397 -11.5097 28.7481
rtibia 88.7674
rfoot -16.5939 -0.779811
rtoes -20.9325
lfemur 21.2583 -6.38168 -22.291
ltibia 8.5875e-014
lfoot -11.9344 -1.68657
ltoes -23.2006
305
root 1.23937 15.3683 36.3268 24.5073 4.10328 0.0268847
lowerback 16.0661 -2.88654 2.56439
upperback -1.33513 -2.87983 4.31407
thorax -10.4138 -1.36417 3.97251
lowerneck -28.1469 1.66951 -0.0462995
upperneck 5.33777 2.81751 -4.63843
head 6.06303 0.922982 -1.17044
rclavicle 7.83212e-014 -5.48646e-014
rhumerus -66.2144 7.90884 -84.8145
rradius 77.959
rwrist -6.26706
rhand -35.3955 -4.80589
rfingers 7.12502
rthumb -8.52647 -34.6137
lclavicle 7.83212e-014 -5.48646e-014
lhumerus -31.8116 -20.0056 96.4099
lradius 119.602
lwrist 11.1251
lhand -22.9461 -5.88541
lfingers 7.12502
lthumb 3.49517 24.0657
rfemur -72.5522 -11.6262 29.253
rtibia 89.0375
rfoot -17.3667 0.313026
rtoes -19.2077
lfemur 21.5699 -6.69933 -21.8194
ltibia 3.81667e-014
lfoot -9.44639 -1.89882
ltoes -25.634
306
root 1.20132 15.3695 36.6002 25.1001 3.56247 0.143478
lowerback 16.2958 -2.70851 1.96207
upperback -1.62565 -2.73123 4.39607
thorax -10.8438 -1.24839 4.40204
lowerneck -27.3441 1.8553 0.237322
upperneck 4.83385 2.96882 -4.90163
head 5.79831 1.00073 -1.28318
rclavicle -4.05521e-014 2.46493e-014
rhumerus -67.636 7.89241 -84.9729
rradius 78.6185
rwrist -6.38481
rhand -35.6015 -4.47433
rfingers 7.12502
rthumb -8.72531 -34.274
lclavicle -4.05521e-014 2.46493e-014
lhumerus -33.2352 -21.412 97.0212
lradius 121.852
lwrist 10.357
lhand -22.9342 -6.41935
lfingers 7.12502
lthumb 3.5066 23.5316
rfemur -71.7834 -10.8547 29.0923
rtibia 89.0966
rfoot -18.4382 -0.0950374
rtoes -20.8
lfemur 21.4646 -6.52077 -21.9401
ltibia -3.18055e-015
lfoot -6.35824 -2.15373
ltoes -27.8694
307
root 1.18628 15.3606 36.9139 25.5209 3.59622 0.0333442
lowerback 16.2799 -2.69521 2.33206
upperback -1.7061 -2.62424 4.5073
thorax -10.9443 -1.21384 4.29297
lowerneck -27.3053 1.84983 0.167125
upperneck 4.61351 2.98491 -4.98937
head 5.72238 1.00393 -1.2992
rclavicle 1.98785e-014 -9.54166e-015
rhumerus -68.4909 7.47889 -84.9331
rradius 78.9012
rwrist -7.07699
rhand -35.9977 -3.64632
rfingers 7.12502
rthumb -9.10758 -33.4297
lclavicle 1.98785e-014 -9.54166e-015
lhumerus -34.5009 -23.0021 97.8147
lradius 123.679
lwrist 9.15201
lhand -22.4584 -6.55724
lfingers 7.12502
lthumb 3.96609 23.3856
rfemur -70.4173 -10.8573 29.3281
rtibia 88.9406
rfoot -20.043 -0.807655
rtoes -24.0558
lfemur 18.4029 -6.71632 -21.6858
ltibia 6.20642
lfoot -5.83486 -2.50973
ltoes -28.8849
